# xmcd
#
# Track frame offsets: 
#        150
#        13472
#        26849
#        43226
#        60993
#        74905
#        99402
#        112170
#        130027
#        154103
#        169891
#        187731
#        202251
#        216691
#        232194
#        237664
#
# Disc length: 3233 seconds
#
# Revision: 0
# Processed by: cddbd v1.5.2PL0 Copyright (c) Steve Scherf et al.
# Submitted via: ExactAudioCopyFreeDBPlugin 1.0
#
DISCID=000c9f10
DTITLE=Big Fat Snake - Midnight Hour
DYEAR=2013
DGENRE=Blues
TTITLE0=Burning Love
TTITLE1=In The Midnight Hour
TTITLE2=Water
TTITLE3=Up In The Sky
TTITLE4=Raise Your Hand
TTITLE5=Stranger In My Own Hometown
TTITLE6=I'll Take Care Of You
TTITLE7=Stop Sleeping With The Lights On
TTITLE8=Howling At The Moon
TTITLE9=This Old Heart Of Mine
TTITLE10=Explain
TTITLE11=Sitting In The Dock Of The Bay
TTITLE12=Don't Think Twice
TTITLE13=Only One Like You
TTITLE14=Little Sister
TTITLE15=Get Back
EXTD=
EXTT0=
EXTT1=
EXTT2=
EXTT3=
EXTT4=
EXTT5=
EXTT6=
EXTT7=
EXTT8=
EXTT9=
EXTT10=
EXTT11=
EXTT12=
EXTT13=
EXTT14=
EXTT15=
PLAYORDER=
